<svg xmlns="http://www.w3.org/2000/svg" width="741.932" height="134.636" viewBox="0 0 741.932 134.636"><g transform="translate(-1256.796 -222.364)"><path d="M64.517-38.442A40.523,40.523,0,0,1,63.474-29.2a24.523,24.523,0,0,1-3.278,7.9,17.169,17.169,0,0,1-5.588,5.439,15.507,15.507,0,0,1-8.12,2.012,15.606,15.606,0,0,1-8.046-2.012,16.919,16.919,0,0,1-5.662-5.439A24.523,24.523,0,0,1,29.5-29.2a40.523,40.523,0,0,1-1.043-9.238A41.193,41.193,0,0,1,29.5-47.829a24.523,24.523,0,0,1,3.278-7.9,16.919,16.919,0,0,1,5.662-5.438,15.606,15.606,0,0,1,8.046-2.012,15.508,15.508,0,0,1,8.12,2.012A17.169,17.169,0,0,1,60.2-55.726a24.523,24.523,0,0,1,3.278,7.9A41.193,41.193,0,0,1,64.517-38.442ZM8.046-106.386V0H28.161V-9.834h.3A19.29,19.29,0,0,0,38.591-.745a40.641,40.641,0,0,0,15.2,2.682A29.327,29.327,0,0,0,65.262-.447a29.376,29.376,0,0,0,10.206-7.3,37.332,37.332,0,0,0,7.376-12.591,52.783,52.783,0,0,0,2.831-18.252,52.783,52.783,0,0,0-2.831-18.253,37.332,37.332,0,0,0-7.376-12.591,29.376,29.376,0,0,0-10.206-7.3,29.327,29.327,0,0,0-11.473-2.384,35.563,35.563,0,0,0-13.783,2.756,22.575,22.575,0,0,0-10.5,8.717h-.3v-38.74Zm94.019,29.353V0h21.158V-34.717a42.578,42.578,0,0,1,1.043-9.685,21.209,21.209,0,0,1,3.5-7.823,17.032,17.032,0,0,1,6.482-5.289,22.541,22.541,0,0,1,9.834-1.937,37.785,37.785,0,0,1,4.023.224q2.086.224,3.576.521V-78.374a16.5,16.5,0,0,0-4.619-.745,25.266,25.266,0,0,0-7.748,1.192,28.392,28.392,0,0,0-7,3.353A26.356,26.356,0,0,0,126.5-69.36a26.021,26.021,0,0,0-4.023,6.631h-.3v-14.3ZM212.176-46.786H177.757a24.284,24.284,0,0,1,.969-5.066,15.554,15.554,0,0,1,2.831-5.364,16.027,16.027,0,0,1,5.364-4.247,18.407,18.407,0,0,1,8.419-1.713q7.748,0,11.548,4.172T212.176-46.786Zm-34.419,13.41h55.577a54.383,54.383,0,0,0-1.49-17.135,41.941,41.941,0,0,0-6.78-14.6A34.2,34.2,0,0,0,213.07-75.32a36.629,36.629,0,0,0-17.135-3.8,39.9,39.9,0,0,0-16.018,3.129,37.871,37.871,0,0,0-12.441,8.568,37.763,37.763,0,0,0-8.046,12.888A44.928,44.928,0,0,0,156.6-38.442a46.9,46.9,0,0,0,2.757,16.39,37.22,37.22,0,0,0,7.822,12.814,34.079,34.079,0,0,0,12.367,8.27,44,44,0,0,0,16.39,2.906q13.112,0,22.35-5.96T231.993-23.84H213.368q-1.043,3.576-5.662,6.78a18.862,18.862,0,0,1-11.026,3.2q-8.94,0-13.708-4.619T177.757-33.376Zm70.179-19.966h21.158q.6-6.258,4.172-8.94t9.834-2.682a35.359,35.359,0,0,1,5.289.372,11.723,11.723,0,0,1,4.321,1.49,8.218,8.218,0,0,1,2.98,3.129,11.227,11.227,0,0,1,1.118,5.438,5.723,5.723,0,0,1-1.937,4.992,14.286,14.286,0,0,1-5.662,2.607,56.451,56.451,0,0,1-8.2,1.341q-4.619.447-9.387,1.192a89.076,89.076,0,0,0-9.461,2.012,26.7,26.7,0,0,0-8.344,3.8,19.31,19.31,0,0,0-5.96,6.779,22.461,22.461,0,0,0-2.309,10.8,24.181,24.181,0,0,0,2.011,10.281,19.421,19.421,0,0,0,5.588,7.152A23.545,23.545,0,0,0,261.5.6a37.84,37.84,0,0,0,10.281,1.341A47.844,47.844,0,0,0,285.782-.149a27.571,27.571,0,0,0,11.92-7.3,31.784,31.784,0,0,0,.522,3.8A30.364,30.364,0,0,0,299.192,0h21.456a18.046,18.046,0,0,1-2.086-7.152,80.49,80.49,0,0,1-.6-9.983V-57.216q0-7-3.129-11.25a21.432,21.432,0,0,0-8.046-6.631,36.008,36.008,0,0,0-10.877-3.2,86.339,86.339,0,0,0-11.771-.82,64.8,64.8,0,0,0-12.74,1.266,36.361,36.361,0,0,0-11.4,4.247,25.365,25.365,0,0,0-8.344,7.9A24.578,24.578,0,0,0,247.936-53.342ZM296.808-37.7v7.9a40.44,40.44,0,0,1-.372,4.768,15.964,15.964,0,0,1-2.012,5.886,13.952,13.952,0,0,1-5.066,4.991q-3.427,2.086-9.685,2.086a26.628,26.628,0,0,1-4.917-.447,11.948,11.948,0,0,1-4.172-1.564,8,8,0,0,1-2.831-3.054A9.953,9.953,0,0,1,266.71-21.9a10.306,10.306,0,0,1,1.043-4.917,9.562,9.562,0,0,1,2.757-3.2,13.877,13.877,0,0,1,4.023-2.011,38.21,38.21,0,0,1,4.693-1.192q2.533-.447,5.066-.745t4.842-.745a34.24,34.24,0,0,0,4.321-1.118A9.491,9.491,0,0,0,296.808-37.7Zm42.465-68.689V0h21.158V-26.522l8.2-7.9L389.784,0h25.628L383.079-48.723l29.055-28.31H387.1L360.431-49.319v-57.067ZM452.662-77.033v-23.1H431.5v23.1H418.69v14.155H431.5v45.445a19.684,19.684,0,0,0,1.937,9.387,13.8,13.8,0,0,0,5.29,5.513A21.961,21.961,0,0,0,446.479.075a61.767,61.767,0,0,0,9.313.671Q458.92.745,462.2.6a50.346,50.346,0,0,0,5.96-.6V-16.39a29.64,29.64,0,0,1-3.129.447q-1.639.149-3.427.149-5.364,0-7.152-1.788t-1.788-7.152V-62.878h15.5V-77.033Zm28.608-29.353V0h21.158V-40.379q0-11.771,3.874-16.911t12.516-5.14q7.6,0,10.579,4.694t2.98,14.229V0h21.158V-47.382a62.09,62.09,0,0,0-1.266-13.037,24.794,24.794,0,0,0-4.4-9.983,20.655,20.655,0,0,0-8.568-6.407q-5.439-2.309-13.931-2.31a27.748,27.748,0,0,0-12.218,3.055,24.5,24.5,0,0,0-10.281,9.759h-.447v-40.081Zm91.337,29.353V0h21.158V-34.717a42.576,42.576,0,0,1,1.043-9.685,21.209,21.209,0,0,1,3.5-7.823,17.033,17.033,0,0,1,6.482-5.289,22.541,22.541,0,0,1,9.834-1.937,37.785,37.785,0,0,1,4.023.224q2.086.224,3.576.521V-78.374a16.5,16.5,0,0,0-4.619-.745,25.266,25.266,0,0,0-7.748,1.192,28.393,28.393,0,0,0-7,3.353,26.357,26.357,0,0,0-5.811,5.215,26.022,26.022,0,0,0-4.023,6.631h-.3v-14.3ZM705.813,0V-77.033H684.655v40.379q0,11.771-3.874,16.911T668.265-14.6q-7.6,0-10.579-4.693t-2.98-14.23V-77.033H633.548v47.382a62.09,62.09,0,0,0,1.266,13.038,24.794,24.794,0,0,0,4.4,9.983A20.106,20.106,0,0,0,647.778-.3q5.439,2.235,13.931,2.235a30.785,30.785,0,0,0,13.112-2.98,23.8,23.8,0,0,0,10.43-9.685h.447V0Z" transform="translate(1249 329)" fill="#131313" stroke="#131313" stroke-linecap="round" stroke-linejoin="round" stroke-width="0.5"/><rect width="18" height="18" transform="translate(1986 303.444) rotate(45)" fill="#e84343"/><line x2="729" transform="translate(1257.5 353.5)" fill="none" stroke="#040404" stroke-width="7"/></g></svg>